<svg width="72" height="72" viewBox="0 0 72 72" fill="none" xmlns="http://www.w3.org/2000/svg">
<g clip-path="url(#clip0_60_71)">
<rect width="72" height="72" rx="22" fill="#262626"/>
<path d="M17.5567 32.6361V35.8144C17.5567 35.9996 17.6188 36.1794 17.733 36.3252C17.8472 36.4709 18.007 36.5741 18.1868 36.6184L27.4798 38.9049C27.6596 38.9491 27.8194 39.0524 27.9337 39.1981C28.0479 39.3439 28.11 39.5237 28.11 39.7089V47.7815C28.11 47.8588 28.0924 47.935 28.0587 48.0045C28.0249 48.0739 27.9758 48.1348 27.9151 48.1826C27.8544 48.2303 27.7836 48.2636 27.7081 48.28C27.6327 48.2964 27.5545 48.2954 27.4794 48.2771L18.1873 46.0176C18.1122 45.9994 18.034 45.9984 17.9585 46.0148C17.883 46.0312 17.8123 46.0645 17.7516 46.1122C17.6908 46.16 17.6418 46.2209 17.608 46.2903C17.5742 46.3598 17.5567 46.436 17.5567 46.5133V49.6915C17.5567 49.8767 17.6188 50.0565 17.733 50.2023C17.8472 50.348 18.007 50.4513 18.1868 50.4955L27.4798 52.782C27.6596 52.8263 27.8194 52.9295 27.9337 53.0752C28.0479 53.221 28.11 53.4008 28.11 53.586V61.4794C28.11 61.5646 28.1267 61.649 28.1594 61.7277C28.192 61.8065 28.2398 61.878 28.3 61.9383C28.3603 61.9985 28.4318 62.0463 28.5106 62.0789C28.5893 62.1115 28.6737 62.1283 28.7589 62.1283H31.1524C31.2376 62.1283 31.322 62.1115 31.4007 62.0789C31.4795 62.0463 31.551 61.9985 31.6113 61.9383C31.6715 61.878 31.7193 61.8065 31.7519 61.7277C31.7846 61.649 31.8013 61.5646 31.8013 61.4794V54.4812C31.8013 54.4042 31.8189 54.3281 31.8527 54.2589C31.8864 54.1896 31.9355 54.129 31.9962 54.0816C32.0569 54.0341 32.1276 54.0011 32.2029 53.9851C32.2783 53.9691 32.3563 53.9704 32.4311 53.989L40.1639 55.9136C40.3438 55.9583 40.5034 56.062 40.6175 56.208C40.7317 56.354 40.7936 56.5339 40.7936 56.7192V61.4794C40.7936 61.5646 40.8104 61.649 40.843 61.7277C40.8757 61.8065 40.9235 61.878 40.9837 61.9383C41.044 61.9985 41.1155 62.0463 41.1942 62.0789C41.273 62.1115 41.3574 62.1283 41.4426 62.1283H43.8361C43.9213 62.1283 44.0057 62.1115 44.0844 62.0789C44.1632 62.0463 44.2347 61.9985 44.295 61.9383C44.3552 61.878 44.403 61.8065 44.4356 61.7277C44.4682 61.649 44.485 61.5646 44.485 61.4794V57.6145C44.485 57.5373 44.5026 57.4611 44.5363 57.3917C44.5701 57.3223 44.6192 57.2615 44.6799 57.2138C44.7406 57.1661 44.8114 57.1329 44.8868 57.1166C44.9623 57.1002 45.0404 57.1013 45.1154 57.1196L54.4824 59.4082C54.5574 59.4265 54.6356 59.4275 54.711 59.4112C54.7865 59.3949 54.8572 59.3616 54.9179 59.314C54.9786 59.2663 55.0277 59.2055 55.0615 59.136C55.0953 59.0666 55.1128 58.9904 55.1128 58.9132V55.7045C55.1128 55.5194 55.0507 55.3397 54.9364 55.1941C54.8221 55.0485 54.6622 54.9455 54.4824 54.9016L45.1155 52.613C44.9357 52.5691 44.7758 52.4661 44.6615 52.3205C44.5472 52.1749 44.4851 51.9952 44.4851 51.8101V43.708C44.4851 43.6308 44.5026 43.5547 44.5364 43.4852C44.5702 43.4158 44.6193 43.355 44.68 43.3073C44.7407 43.2596 44.8114 43.2264 44.8869 43.2101C44.9623 43.1938 45.0405 43.1948 45.1155 43.2131L54.4824 45.5017C54.5574 45.52 54.6356 45.521 54.711 45.5047C54.7865 45.4884 54.8572 45.4552 54.9179 45.4075C54.9786 45.3598 55.0277 45.299 55.0615 45.2296C55.0953 45.1601 55.1128 45.084 55.1128 45.0068V41.8274C55.1128 41.6423 55.0507 41.4626 54.9364 41.317C54.8221 41.1714 54.6622 41.0684 54.4824 41.0245L45.1155 38.7369C44.9357 38.693 44.7758 38.59 44.6615 38.4444C44.5472 38.2989 44.4851 38.1191 44.4851 37.934V30.1895C44.4851 30.1042 44.4683 30.0199 44.4357 29.9411C44.4031 29.8624 44.3553 29.7909 44.295 29.7306C44.2348 29.6703 44.1632 29.6225 44.0845 29.5899C44.0058 29.5573 43.9214 29.5405 43.8362 29.5405H41.4427C41.3574 29.5405 41.2731 29.5573 41.1943 29.5899C41.1156 29.6225 41.0441 29.6703 40.9838 29.7306C40.9235 29.7909 40.8757 29.8624 40.8431 29.9411C40.8105 30.0199 40.7937 30.1042 40.7937 30.1895V37.0388C40.7937 37.116 40.7762 37.1921 40.7424 37.2615C40.7087 37.3308 40.6596 37.3916 40.5989 37.4392C40.5382 37.4868 40.4674 37.52 40.392 37.5362C40.3166 37.5525 40.2385 37.5514 40.1635 37.533L32.4316 35.6338C32.2518 35.5896 32.092 35.4864 31.9778 35.3407C31.8635 35.195 31.8014 35.0152 31.8014 34.8301V30.1895C31.8014 30.1042 31.7846 30.0199 31.752 29.9411C31.7194 29.8624 31.6716 29.7909 31.6114 29.7306C31.5511 29.6703 31.4796 29.6225 31.4008 29.5899C31.3221 29.5573 31.2377 29.5405 31.1525 29.5405H28.759C28.6737 29.5405 28.5894 29.5573 28.5106 29.5899C28.4319 29.6225 28.3604 29.6703 28.3001 29.7306C28.2398 29.7909 28.192 29.8624 28.1594 29.9411C28.1268 30.0199 28.11 30.1042 28.11 30.1895V33.9348C28.11 34.012 28.0925 34.0881 28.0587 34.1575C28.025 34.2268 27.9759 34.2876 27.9152 34.3352C27.8545 34.3827 27.7837 34.4159 27.7083 34.4321C27.6329 34.4483 27.5548 34.4472 27.4799 34.4287L18.1868 32.1422C18.1119 32.1238 18.0338 32.1227 17.9584 32.1389C17.883 32.1551 17.8123 32.1882 17.7516 32.2358C17.6909 32.2834 17.6418 32.3442 17.608 32.4135C17.5742 32.4829 17.5567 32.559 17.5567 32.6361ZM40.7936 42.8128V50.9149C40.7936 50.9919 40.7761 51.0679 40.7423 51.1372C40.7086 51.2064 40.6595 51.2671 40.5988 51.3145C40.5381 51.3619 40.4674 51.3949 40.392 51.411C40.3167 51.427 40.2387 51.4257 40.1639 51.4071L32.4311 49.4825C32.2512 49.4377 32.0916 49.3341 31.9774 49.1881C31.8633 49.0421 31.8013 48.8621 31.8013 48.6768V40.6041C31.8013 40.5269 31.8189 40.4508 31.8526 40.3814C31.8864 40.312 31.9355 40.2513 31.9962 40.2037C32.0569 40.1561 32.1277 40.1229 32.2031 40.1066C32.2785 40.0904 32.3566 40.0915 32.4315 40.1099L40.1635 42.0091C40.3433 42.0533 40.5031 42.1565 40.6173 42.3022C40.7316 42.4479 40.7936 42.6277 40.7936 42.8128Z" fill="#7F87C0"/>
<g filter="url(#filter0_d_60_71)">
<path fill-rule="evenodd" clip-rule="evenodd" d="M45.712 8.58319C46.4561 8.95526 46.7577 9.86009 46.3856 10.6042L44.6164 14.1429C48.5141 16.8657 51.0639 21.3854 51.0639 26.5008V28.0072C51.0639 29.6711 49.715 31.02 48.0511 31.02H23.9489C22.285 31.02 20.9362 29.6711 20.9362 28.0072V26.5008C20.9362 21.3854 23.4858 16.8657 27.3837 14.1429L25.6144 10.6042C25.2423 9.86009 25.5439 8.95526 26.288 8.58319C27.0321 8.21113 27.937 8.51274 28.3091 9.25686L30.0166 12.672C31.8507 11.8774 33.8739 11.437 36 11.437C38.1261 11.437 40.1493 11.8774 41.9834 12.6721L43.691 9.25686C44.0631 8.51274 44.9678 8.21113 45.712 8.58319ZM29.2213 20.4753C27.9733 20.4753 26.9617 21.487 26.9617 22.7348C26.9617 23.9827 27.9733 24.9944 29.2213 24.9944C30.4692 24.9944 31.4808 23.9827 31.4808 22.7348C31.4808 21.487 30.4692 20.4753 29.2213 20.4753ZM42.7787 20.4753C41.5308 20.4753 40.5192 21.487 40.5192 22.7348C40.5192 23.9827 41.5308 24.9944 42.7787 24.9944C44.0266 24.9944 45.0383 23.9827 45.0383 22.7348C45.0383 21.487 44.0266 20.4753 42.7787 20.4753Z" fill="#ACB1D6"/>
</g>
</g>
<defs>
<filter id="filter0_d_60_71" x="10.2362" y="1.72383" width="51.5277" height="43.9962" filterUnits="userSpaceOnUse" color-interpolation-filters="sRGB">
<feFlood flood-opacity="0" result="BackgroundImageFix"/>
<feColorMatrix in="SourceAlpha" type="matrix" values="0 0 0 0 0 0 0 0 0 0 0 0 0 0 0 0 0 0 127 0" result="hardAlpha"/>
<feOffset dy="4"/>
<feGaussianBlur stdDeviation="5.35"/>
<feComposite in2="hardAlpha" operator="out"/>
<feColorMatrix type="matrix" values="0 0 0 0 0.67451 0 0 0 0 0.694118 0 0 0 0 0.839216 0 0 0 0.25 0"/>
<feBlend mode="normal" in2="BackgroundImageFix" result="effect1_dropShadow_60_71"/>
<feBlend mode="normal" in="SourceGraphic" in2="effect1_dropShadow_60_71" result="shape"/>
</filter>
<clipPath id="clip0_60_71">
<rect width="72" height="72" rx="22" fill="white"/>
</clipPath>
</defs>
</svg>
