<svg width="18" height="18" viewBox="0 0 18 18" fill="none" xmlns="http://www.w3.org/2000/svg">
<path d="M6.75 14.2498C3.525 15.2998 3.525 12.3748 2.25 11.9998M11.25 15.7498V13.1248C11.25 12.3748 11.325 12.0748 10.875 11.6248C12.975 11.3998 15 10.5748 15 7.12484C14.9991 6.22856 14.6494 5.36782 14.025 4.72484C14.3179 3.94632 14.2909 3.08356 13.95 2.32484C13.95 2.32484 13.125 2.09984 11.325 3.29984C9.80043 2.90278 8.19957 2.90278 6.675 3.29984C4.875 2.09984 4.05 2.32484 4.05 2.32484C3.70911 3.08356 3.68215 3.94632 3.975 4.72484C3.35059 5.36782 3.00091 6.22856 3 7.12484C3 10.5748 5.025 11.3998 7.125 11.6248C6.675 12.0748 6.675 12.5248 6.75 13.1248V15.7498" stroke="#C9C7C7" stroke-width="1.5" stroke-linecap="round" stroke-linejoin="round"/>
</svg>
