<svg width="18" height="18" viewBox="0 0 18 18" fill="none" xmlns="http://www.w3.org/2000/svg">
<path fill-rule="evenodd" clip-rule="evenodd" d="M0 15.0675V7.40025L4.40175 11.2935L4.4055 11.298C4.77688 11.6199 5.25099 11.7985 5.74243 11.8018C6.23386 11.8051 6.71033 11.6328 7.086 11.316L9.1935 9.5385C9.2205 9.5185 9.247 9.4975 9.273 9.4755L12.1875 6.97725V16.6373H1.57125C1.15479 16.6373 0.755362 16.4719 0.460738 16.1776C0.166115 15.8832 0.000397577 15.484 0 15.0675ZM13.3125 16.6388H14.9288C15.1352 16.6388 15.3397 16.5981 15.5304 16.519C15.7211 16.4399 15.8944 16.3241 16.0403 16.178C16.1862 16.0319 16.302 15.8586 16.3808 15.6678C16.4597 15.4769 16.5002 15.2725 16.5 15.066V3.28125L13.3125 6.0135V16.6388ZM5.145 10.449L0 5.89875V3.28125L7.227 9.47625C7.277 9.51925 7.32925 9.5585 7.38375 9.594L6.36075 10.4565C6.1903 10.6002 5.9742 10.6785 5.75126 10.6772C5.52831 10.676 5.3131 10.5953 5.14425 10.4497L5.145 10.449Z" fill="#C9C7C7"/>
</svg>
