<svg width="21" height="21" viewBox="0 0 21 21" fill="none" xmlns="http://www.w3.org/2000/svg">
<g clip-path="url(#clip0_59_996)">
<path d="M10.1748 0.328125C4.55566 0.328125 0.00292969 4.88086 0.00292969 10.5C0.00292969 16.1191 4.55566 20.6719 10.1748 20.6719C15.7939 20.6719 20.3467 16.1191 20.3467 10.5C20.3467 4.88086 15.7939 0.328125 10.1748 0.328125ZM15.1705 7.29668L13.5012 15.1635C13.3781 15.7213 13.0459 15.8566 12.5824 15.5941L10.0395 13.7197L8.81309 14.901C8.67773 15.0363 8.56289 15.1512 8.30039 15.1512L8.48086 12.5631L13.1936 8.30566C13.3986 8.1252 13.1484 8.02266 12.8777 8.20312L7.05352 11.8699L4.54336 11.0865C3.99785 10.9143 3.98555 10.541 4.6582 10.2785L14.465 6.49687C14.9203 6.33281 15.3182 6.60762 15.1705 7.29668Z" fill="#C9C7C7"/>
</g>
<defs>
<clipPath id="clip0_59_996">
<rect width="21" height="21" fill="white"/>
</clipPath>
</defs>
</svg>
